<svg preserveAspectRatio="none" overflow="visible" style="display: block;" width="14" height="14" viewBox="0 0 14 14" fill="none" xmlns="http://www.w3.org/2000/svg">
<g id="Group">
<path id="Vector" d="M6.99902 2.65137C7.35151 3.11098 7.82442 3.45278 8.31934 3.64844C8.35547 3.66293 8.3911 3.67868 8.42676 3.69434L8.43457 3.69824C8.92284 3.91026 9.49958 4.00129 10.0742 3.92578C9.99858 4.50013 10.0905 5.07666 10.3018 5.56445L10.3037 5.56738C10.32 5.60485 10.3356 5.64265 10.3506 5.68066V5.68164C10.546 6.17587 10.8886 6.64746 11.3477 7C10.8904 7.35113 10.5492 7.82124 10.3535 8.31445C10.3384 8.35233 10.3227 8.38937 10.3066 8.42578L10.3027 8.43457C10.0907 8.92282 9.99873 9.49961 10.0742 10.0742C9.57175 10.0081 9.0673 10.0699 8.62109 10.2295L8.43848 10.3018C8.40212 10.3175 8.36497 10.3329 8.32715 10.3477L8.31934 10.3506C7.82468 10.5461 7.35267 10.889 7 11.3486C6.64862 10.8908 6.17832 10.5492 5.68457 10.3535H5.68555C5.64767 10.3384 5.61063 10.3227 5.57422 10.3066L5.56543 10.3027L5.375 10.2275C4.93018 10.0694 4.42676 10.0081 3.9248 10.0742C3.99075 9.5722 3.92896 9.06901 3.77051 8.62402L3.69629 8.43359C3.67802 8.39028 3.65972 8.34636 3.6416 8.30176H3.64062C3.44398 7.81283 3.10428 7.34815 2.65039 7C3.1098 6.64761 3.45292 6.1761 3.64844 5.68066C3.66354 5.64245 3.67989 5.60409 3.69629 5.56641L3.69531 5.56543C3.90819 5.07625 4.00047 4.49976 3.9248 3.9248C4.49911 4.00052 5.07469 3.90846 5.5625 3.69727C5.60679 3.67814 5.65232 3.66026 5.69824 3.6416L5.69727 3.64062C6.18611 3.44418 6.65076 3.10497 6.99902 2.65137Z" stroke="white" stroke-width="4"/>
<path id="Vector_2" d="M6.99976 4.70008C7.60975 4.70008 8.19538 4.94257 8.62671 5.37391C9.05781 5.80517 9.29951 6.3901 9.29956 6.99989C9.29956 7.60988 9.05804 8.1955 8.62671 8.62684C8.19538 9.05817 7.60975 9.29969 6.99976 9.29969C6.38997 9.29964 5.80504 9.05794 5.37378 8.62684C4.94245 8.1955 4.69995 7.60988 4.69995 6.99989C4.7 6.38996 4.94249 5.8052 5.37378 5.37391C5.80507 4.94262 6.38983 4.70013 6.99976 4.70008Z" stroke="white"/>
</g>
</svg>
