<svg preserveAspectRatio="none" overflow="visible" style="display: block;" width="17" height="17" viewBox="0 0 17 17" fill="none" xmlns="http://www.w3.org/2000/svg">
<g id="volume-2">
<path id="Vector" d="M11.3334 6.37517C11.7932 6.98821 12.0418 7.73383 12.0418 8.50012C12.0418 9.26642 11.7932 10.012 11.3334 10.6251M13.7166 13.0077C14.3086 12.4157 14.7782 11.7129 15.0986 10.9395C15.419 10.1661 15.5839 9.3371 15.5839 8.49994C15.5839 7.66277 15.419 6.83381 15.0986 6.06037C14.7782 5.28693 14.3086 4.58417 13.7166 3.99221M7.7915 3.33084C7.79136 3.23218 7.76199 3.13578 7.70711 3.05379C7.65222 2.9718 7.57428 2.90791 7.48311 2.87017C7.39195 2.83244 7.29165 2.82255 7.19487 2.84176C7.09809 2.86096 7.00916 2.90841 6.93932 2.9781L4.54217 5.37434C4.44966 5.46739 4.3396 5.54117 4.21837 5.59138C4.09714 5.6416 3.96714 5.66726 3.83592 5.66687H2.12448C1.9366 5.66687 1.75643 5.7415 1.62358 5.87433C1.49073 6.00717 1.4161 6.18733 1.4161 6.37519V10.6251C1.4161 10.813 1.49073 10.9931 1.62358 11.1259C1.75643 11.2588 1.9366 11.3334 2.12448 11.3334H3.83592C3.96714 11.333 4.09714 11.3587 4.21837 11.4089C4.3396 11.4591 4.44966 11.5329 4.54217 11.6259L6.93862 14.0229C7.00846 14.0929 7.09751 14.1405 7.19448 14.1599C7.29144 14.1792 7.39197 14.1693 7.48331 14.1314C7.57465 14.0936 7.65269 14.0295 7.70756 13.9472C7.76243 13.865 7.79164 13.7683 7.7915 13.6694V3.33084Z" stroke="#FFC72C" stroke-width="2" stroke-linecap="round"/>
</g>
</svg>
