<svg preserveAspectRatio="none" overflow="visible" style="display: block;" width="88.3627" height="123.549" viewBox="0 0 88.3627 123.549" fill="none" xmlns="http://www.w3.org/2000/svg">
<g id="Vector">
<path d="M69.2167 117.166C68.3784 119.262 66.7853 120.996 65.315 121.103C64.9446 121.207 64.5697 121.294 64.1914 121.363C60.6381 122.037 54.9758 120.709 51.2506 120.091L33.7518 117.166L17.9965 114.565C15.6037 114.168 11.956 113.68 9.6925 113.13C8.38125 112.816 7.13665 112.27 6.0171 111.518C4.14221 110.233 2.55223 107.589 2.15375 105.398C1.98687 104.493 1.95561 103.57 2.06109 102.656C2.27085 100.828 2.71947 98.4846 3.02208 96.6491L14.3659 28.2482C15.3941 21.9715 16.3137 15.6007 17.6196 9.38297C17.8789 8.2868 18.3699 7.0851 19.0066 6.15997C20.9032 3.40421 24.0389 1.91048 27.3606 2.00414C28.6219 2.0397 30.133 2.35462 31.413 2.56613L37.2096 3.52942L69.3626 8.91592L74.9331 9.86495C76.2344 10.0933 77.4351 10.2789 78.7261 10.5893C82.9549 11.6058 85.5819 14.7804 86.3329 19.0157C86.3329 19.0157 70.0549 115.07 69.2167 117.166Z" fill="white"/>
<path d="M46.5982 45.6012C46.8983 45.85 47.3696 46.3575 47.6226 46.6694C52.0812 52.1681 58.6109 56.8509 59.3084 64.4424C59.7557 69.3115 57.1248 74.2032 51.8735 74.5462C48.5217 74.773 46.2762 73.4293 43.8252 71.315C44.0006 72.1958 43.8287 73.6325 44.0225 74.6042C44.2478 75.733 44.6529 76.7693 44.9624 77.876C45.0194 78.0794 44.9573 78.1583 44.8607 78.2927C44.3328 78.4169 42.3365 78.0092 41.6739 77.895C41.1309 77.8102 38.3306 77.4829 38.0731 77.1036C38.017 76.5866 38.5589 76.1059 38.8827 75.6883C39.3223 75.1292 39.7074 74.5294 40.0325 73.8969C40.5108 72.9701 40.871 71.6592 41.3617 70.8612C39.1593 71.8206 37.3275 72.2889 34.9591 71.9762C30.1746 71.3447 27.0224 67.2771 27.9809 62.4824C28.2677 61.0477 28.4647 59.7819 29.196 58.4674C31.5841 54.1746 35.9902 51.6199 40.1752 49.3601C42.6248 48.0478 44.4055 47.2515 46.5982 45.6012Z" fill="black"/>
<path d="M62.6028 101.208C63.0258 101.383 63.3802 101.307 63.6337 101.575C63.6199 101.829 63.2143 102.327 63.0461 102.564C63.777 102.473 65.2358 102.422 65.6482 103.093C66.8131 104.989 64.0564 106.638 62.7888 107.223L62.0821 107.432C61.297 106.903 60.0145 105.309 59.8121 104.398C59.2812 102.008 60.8357 101.497 62.6625 102.455C62.6169 102.069 62.6149 101.602 62.6028 101.208Z" fill="black"/>
<path d="M25.9598 16.1461C26.6942 16.7466 27.6171 17.7195 28.0703 18.5548C28.6409 19.6065 28.5369 20.2819 28.2249 21.3406C27.0241 21.8232 26.5453 21.6237 25.3745 21.2361C25.4124 21.536 25.5525 22.2477 25.4363 22.4616C25.236 22.4499 25.2341 22.3879 25.0571 22.2232C24.7624 22.3218 24.7625 22.3754 24.5095 22.3097C24.4929 22.1297 24.8845 21.4473 25.0124 21.1468C23.7229 21.17 21.6906 21.0046 22.3717 19.1586C22.9163 17.6825 24.6233 16.789 25.9598 16.1461Z" fill="black"/>
<path d="M62.6799 110.588C62.6992 110.527 62.7188 110.466 62.7387 110.406C62.8415 110.095 62.9468 109.63 63.2792 109.509C63.5181 109.421 64.0463 109.269 64.16 109.572C64.0447 110.038 63.1401 111.561 62.8566 112.064C62.617 112.478 62.418 112.953 62.1952 113.376C61.7089 114.298 61.4841 114.336 60.5749 114.143C60.1374 113.101 59.7627 109.966 59.5837 108.695C59.8538 108.723 60.1135 108.719 60.3309 108.874C60.5816 109.174 60.5898 109.777 60.6383 110.193C61.3598 110.395 61.9451 110.477 62.6799 110.588Z" fill="black"/>
<path d="M60.8375 110.925L62.306 111.238C62.015 111.726 61.7078 112.362 61.4433 112.876C61.3475 113.09 61.3995 113.049 61.2317 113.176C60.907 112.916 60.8675 111.353 60.8375 110.925Z" fill="white"/>
<path d="M26.8807 9.46513C27.1447 9.49093 27.2787 9.49132 27.522 9.60112C27.8448 9.90658 28.4495 14.1612 28.6885 15.0329C28.3969 14.9433 28.0056 14.8799 27.6994 14.821C27.5452 14.0844 27.6048 13.5309 26.8242 13.3476C26.4075 13.2774 25.9113 13.2273 25.486 13.1752C25.3447 13.5155 25.2254 14.0012 25.1243 14.3658L23.7966 14.172C24.6145 13.162 25.3597 11.4713 26.0248 10.338C26.309 9.85375 26.3576 9.61334 26.8807 9.46513Z" fill="black"/>
<path d="M26.8485 10.1915C26.9767 10.3198 27.3088 12.3768 27.1805 12.623L26.9827 12.5998C26.6269 12.5278 26.2343 12.475 25.8733 12.4189C26.3379 11.6426 26.6333 11.0646 26.8485 10.1915Z" fill="white"/>
<path d="M27.3887 1.00487C28.4021 1.03344 29.5704 1.23022 30.6016 1.41112L31.5762 1.57909L31.5771 1.58007L37.374 2.54296H37.375L69.5283 7.92967H69.5303L75.1006 8.87889L75.1055 8.87987C76.3821 9.10391 77.6296 9.29738 78.96 9.61717C83.6241 10.7384 86.5061 14.2661 87.3174 18.8408L87.3477 19.0117L87.3184 19.1826L86.333 19.0156L87.3184 19.1836C87.3182 19.1843 87.3186 19.186 87.3184 19.1875C87.3179 19.1904 87.3164 19.1945 87.3154 19.2002C87.3135 19.2118 87.3106 19.2298 87.3066 19.2529C87.2988 19.2991 87.2878 19.3684 87.2725 19.459C87.2416 19.6408 87.1954 19.9109 87.1357 20.2627C87.0163 20.9667 86.8415 21.9995 86.6182 23.3144C86.1714 25.9451 85.5313 29.7056 84.7617 34.2246C83.2225 43.2627 81.1615 55.3361 79.0742 67.4746C76.987 79.6127 74.8738 91.818 73.2295 101.12C72.4074 105.771 71.7019 109.698 71.1758 112.529C70.9129 113.944 70.6941 115.09 70.5273 115.916C70.4441 116.328 70.3725 116.667 70.3145 116.922C70.2646 117.141 70.2069 117.383 70.1455 117.537C69.6839 118.692 69.0084 119.763 68.2207 120.576C67.4759 121.345 66.5317 121.978 65.4893 122.089C65.1202 122.189 64.7478 122.278 64.3711 122.347L64.3701 122.346C62.4222 122.714 59.9819 122.528 57.6475 122.202C55.3165 121.876 52.8831 121.376 51.0869 121.078H51.0859L33.5869 118.152V118.151L17.834 115.551H17.833C15.5023 115.165 11.7702 114.662 9.45898 114.102V114.103C8.03237 113.76 6.67814 113.167 5.45996 112.349L5.45215 112.343C4.37175 111.602 3.41616 110.505 2.68262 109.326C1.94839 108.146 1.39706 106.82 1.1709 105.578L1.16992 105.579C0.985045 104.577 0.950507 103.553 1.06738 102.541C1.28088 100.681 1.73965 98.2786 2.03516 96.4863V96.4853L13.3789 28.0849C14.4029 21.8344 15.3288 15.4239 16.6406 9.17772L16.6465 9.15233C16.9291 7.95797 17.4639 6.63707 18.1826 5.59276C20.2824 2.54176 23.7479 0.902241 27.3887 1.00487Z" stroke="black" stroke-width="2"/>
</g>
</svg>
