<svg preserveAspectRatio="none" overflow="visible" style="display: block;" width="390" height="120" viewBox="0 0 390 120" fill="none" xmlns="http://www.w3.org/2000/svg">
<g id="vector-square">
<path id="Vector" d="M316.885 34.998C328.296 51.4811 328.296 68.5189 316.885 85.002M73.1192 34.998C61.7084 51.4811 61.7084 68.5189 73.1192 85.002M113.744 97.503C167.314 101.014 222.686 101.014 276.257 97.503M113.744 22.4982C167.314 18.9872 222.686 18.9872 276.257 22.4982M292.508 85.002H341.262C350.237 85.002 357.513 87.2408 357.513 90.0024V105.004C357.513 107.765 350.237 110.004 341.262 110.004H292.508C283.532 110.004 276.257 107.765 276.257 105.004V90.0024C276.257 87.2408 283.532 85.002 292.508 85.002ZM292.508 9.996H341.262C350.237 9.996 357.513 12.2348 357.513 14.9964V29.9976C357.513 32.7592 350.237 34.998 341.262 34.998H292.508C283.532 34.998 276.257 32.7592 276.257 29.9976V14.9964C276.257 12.2348 283.532 9.996 292.508 9.996ZM48.7383 85.002H97.4922C106.468 85.002 113.744 87.2408 113.744 90.0024V105.004C113.744 107.765 106.468 110.004 97.4922 110.004H48.7383C39.763 110.004 32.487 107.765 32.487 105.004V90.0024C32.487 87.2408 39.763 85.002 48.7383 85.002ZM48.7383 9.996H97.4922C106.468 9.996 113.744 12.2348 113.744 14.9964V29.9976C113.744 32.7592 106.468 34.998 97.4922 34.998H48.7383C39.763 34.998 32.487 32.7592 32.487 29.9976V14.9964C32.487 12.2348 39.763 9.996 48.7383 9.996Z" stroke="#1F1E4D" stroke-width="2" stroke-linecap="round"/>
</g>
</svg>
